<mxfile host="65bd71144e">
    <diagram id="VhgbLv532cPgLz9gmT-x" name="Page-1">
        <mxGraphModel dx="2365" dy="704" grid="1" gridSize="10" guides="1" tooltips="1" connect="1" arrows="1" fold="1" page="1" pageScale="1" pageWidth="827" pageHeight="1169" math="0" shadow="0">
            <root>
                <mxCell id="0"/>
                <mxCell id="1" parent="0"/>
                <mxCell id="44" value="" style="rounded=0;whiteSpace=wrap;html=1;fillColor=#ffe6cc;strokeColor=#d79b00;opacity=40;" parent="1" vertex="1">
                    <mxGeometry x="40" y="520" width="620" height="360" as="geometry"/>
                </mxCell>
                <mxCell id="42" value="" style="rounded=0;whiteSpace=wrap;html=1;fillColor=#dae8fc;opacity=50;strokeColor=#6c8ebf;" parent="1" vertex="1">
                    <mxGeometry x="130" y="550" width="510" height="280" as="geometry"/>
                </mxCell>
                <mxCell id="16" value="" style="rounded=0;whiteSpace=wrap;html=1;fillColor=#f5f5f5;strokeColor=#666666;opacity=60;fontColor=#333333;" parent="1" vertex="1">
                    <mxGeometry x="665" y="550" width="100" height="110" as="geometry"/>
                </mxCell>
                <mxCell id="22" style="edgeStyle=orthogonalEdgeStyle;html=1;dashed=1;" parent="1" source="17" target="21" edge="1">
                    <mxGeometry relative="1" as="geometry">
                        <Array as="points">
                            <mxPoint x="520" y="610"/>
                            <mxPoint x="520" y="610"/>
                        </Array>
                    </mxGeometry>
                </mxCell>
                <mxCell id="17" value="ETM" style="rounded=0;whiteSpace=wrap;html=1;fillColor=#fad9d5;strokeColor=#ae4132;" parent="1" vertex="1">
                    <mxGeometry x="400" y="590" width="80" height="40" as="geometry"/>
                </mxCell>
                <mxCell id="23" style="edgeStyle=orthogonalEdgeStyle;html=1;dashed=1;" parent="1" source="18" target="21" edge="1">
                    <mxGeometry relative="1" as="geometry">
                        <Array as="points">
                            <mxPoint x="560" y="670"/>
                        </Array>
                    </mxGeometry>
                </mxCell>
                <mxCell id="24" style="edgeStyle=orthogonalEdgeStyle;html=1;dashed=1;" parent="1" source="18" target="19" edge="1">
                    <mxGeometry relative="1" as="geometry">
                        <Array as="points">
                            <mxPoint x="510" y="690"/>
                            <mxPoint x="510" y="730"/>
                        </Array>
                    </mxGeometry>
                </mxCell>
                <mxCell id="18" value="DWT" style="rounded=0;whiteSpace=wrap;html=1;fillColor=#fad9d5;strokeColor=#ae4132;" parent="1" vertex="1">
                    <mxGeometry x="400" y="660" width="80" height="40" as="geometry"/>
                </mxCell>
                <mxCell id="25" style="edgeStyle=orthogonalEdgeStyle;html=1;dashed=1;" parent="1" source="19" target="21" edge="1">
                    <mxGeometry relative="1" as="geometry">
                        <Array as="points">
                            <mxPoint x="600" y="750"/>
                        </Array>
                    </mxGeometry>
                </mxCell>
                <mxCell id="19" value="ITM" style="rounded=0;whiteSpace=wrap;html=1;fillColor=#fad9d5;strokeColor=#ae4132;" parent="1" vertex="1">
                    <mxGeometry x="400" y="720" width="80" height="40" as="geometry"/>
                </mxCell>
                <mxCell id="20" value="FPB" style="rounded=0;whiteSpace=wrap;html=1;fillColor=#fad9d5;strokeColor=#ae4132;" parent="1" vertex="1">
                    <mxGeometry x="400" y="780" width="80" height="40" as="geometry"/>
                </mxCell>
                <mxCell id="52" value="&lt;b&gt;&lt;i&gt;Serial Wire Output signal (1 pin)&lt;/i&gt;&lt;/b&gt;" style="edgeStyle=orthogonalEdgeStyle;sketch=0;html=1;shadow=0;startArrow=none;startFill=0;endArrow=classic;endFill=1;startSize=8;endSize=7;strokeWidth=1;fillColor=default;exitX=1;exitY=0.25;exitDx=0;exitDy=0;dashed=1;" parent="1" source="21" target="48" edge="1">
                    <mxGeometry x="-0.0877" relative="1" as="geometry">
                        <Array as="points">
                            <mxPoint x="630" y="600"/>
                            <mxPoint x="630" y="570"/>
                        </Array>
                        <mxPoint as="offset"/>
                    </mxGeometry>
                </mxCell>
                <mxCell id="21" value="TPIU" style="rounded=0;whiteSpace=wrap;html=1;fillColor=#fad9d5;strokeColor=#ae4132;" parent="1" vertex="1">
                    <mxGeometry x="540" y="590" width="80" height="40" as="geometry"/>
                </mxCell>
                <mxCell id="26" value="Processor Core" style="rounded=0;whiteSpace=wrap;html=1;" parent="1" vertex="1">
                    <mxGeometry x="200" y="610" width="120" height="60" as="geometry"/>
                </mxCell>
                <mxCell id="37" style="edgeStyle=orthogonalEdgeStyle;sketch=0;html=1;shadow=0;startSize=8;endSize=7;strokeWidth=3;fillColor=none;" parent="1" source="27" target="19" edge="1">
                    <mxGeometry relative="1" as="geometry"/>
                </mxCell>
                <mxCell id="27" value="Internal Bus" style="rounded=0;whiteSpace=wrap;html=1;" parent="1" vertex="1">
                    <mxGeometry x="220" y="720" width="80" height="40" as="geometry"/>
                </mxCell>
                <mxCell id="28" value="" style="shape=flexArrow;endArrow=classic;html=1;endSize=7;startSize=8;shadow=0;sketch=0;strokeWidth=1;fillColor=default;" parent="1" source="26" target="27" edge="1">
                    <mxGeometry width="50" height="50" relative="1" as="geometry">
                        <mxPoint x="450" y="710" as="sourcePoint"/>
                        <mxPoint x="500" y="660" as="targetPoint"/>
                    </mxGeometry>
                </mxCell>
                <mxCell id="38" style="edgeStyle=orthogonalEdgeStyle;sketch=0;html=1;shadow=0;startSize=8;endSize=7;strokeWidth=3;fillColor=none;" parent="1" source="27" target="20" edge="1">
                    <mxGeometry relative="1" as="geometry">
                        <mxPoint x="310" y="750" as="sourcePoint"/>
                        <mxPoint x="410" y="750" as="targetPoint"/>
                        <Array as="points">
                            <mxPoint x="360" y="740"/>
                            <mxPoint x="360" y="800"/>
                        </Array>
                    </mxGeometry>
                </mxCell>
                <mxCell id="39" style="edgeStyle=orthogonalEdgeStyle;sketch=0;html=1;shadow=0;startSize=8;endSize=7;strokeWidth=3;fillColor=none;" parent="1" target="18" edge="1">
                    <mxGeometry relative="1" as="geometry">
                        <mxPoint x="300" y="740" as="sourcePoint"/>
                        <mxPoint x="400" y="800" as="targetPoint"/>
                        <Array as="points">
                            <mxPoint x="360" y="740"/>
                            <mxPoint x="360" y="680"/>
                        </Array>
                    </mxGeometry>
                </mxCell>
                <mxCell id="40" style="edgeStyle=orthogonalEdgeStyle;sketch=0;html=1;shadow=0;startSize=8;endSize=7;strokeWidth=3;fillColor=none;" parent="1" source="27" target="17" edge="1">
                    <mxGeometry relative="1" as="geometry">
                        <mxPoint x="310" y="750" as="sourcePoint"/>
                        <mxPoint x="410" y="680" as="targetPoint"/>
                        <Array as="points">
                            <mxPoint x="360" y="740"/>
                            <mxPoint x="360" y="610"/>
                        </Array>
                    </mxGeometry>
                </mxCell>
                <mxCell id="41" style="edgeStyle=orthogonalEdgeStyle;sketch=0;html=1;shadow=0;startSize=8;endSize=7;strokeWidth=3;fillColor=none;" parent="1" source="27" target="26" edge="1">
                    <mxGeometry relative="1" as="geometry">
                        <mxPoint x="310" y="750" as="sourcePoint"/>
                        <mxPoint x="410" y="620" as="targetPoint"/>
                        <Array as="points">
                            <mxPoint x="360" y="740"/>
                            <mxPoint x="360" y="640"/>
                        </Array>
                    </mxGeometry>
                </mxCell>
                <mxCell id="43" value="&lt;b&gt;&lt;font style=&quot;font-size: 14px&quot;&gt;Cortex-M3/M4 processor&lt;/font&gt;&lt;/b&gt;" style="text;html=1;align=center;verticalAlign=middle;resizable=0;points=[];autosize=1;strokeColor=none;fillColor=none;strokeWidth=1;" parent="1" vertex="1">
                    <mxGeometry x="130" y="550" width="180" height="20" as="geometry"/>
                </mxCell>
                <mxCell id="45" value="&lt;b&gt;&lt;font style=&quot;font-size: 14px&quot;&gt;Microcontroller&lt;/font&gt;&lt;/b&gt;" style="text;html=1;align=center;verticalAlign=middle;resizable=0;points=[];autosize=1;strokeColor=none;fillColor=none;strokeWidth=1;" parent="1" vertex="1">
                    <mxGeometry x="520" y="840" width="120" height="20" as="geometry"/>
                </mxCell>
                <mxCell id="51" value="" style="edgeStyle=orthogonalEdgeStyle;sketch=0;html=1;shadow=0;endArrow=classic;endFill=1;startSize=8;endSize=7;strokeWidth=1;fillColor=default;startArrow=classic;startFill=1;" parent="1" source="46" target="48" edge="1">
                    <mxGeometry y="-20" relative="1" as="geometry">
                        <Array as="points">
                            <mxPoint x="120" y="740"/>
                            <mxPoint x="120" y="740"/>
                        </Array>
                        <mxPoint as="offset"/>
                    </mxGeometry>
                </mxCell>
                <mxCell id="46" value="Bridge" style="rounded=0;whiteSpace=wrap;html=1;" parent="1" vertex="1">
                    <mxGeometry x="150" y="720" width="50" height="40" as="geometry"/>
                </mxCell>
                <mxCell id="47" style="edgeStyle=orthogonalEdgeStyle;sketch=0;html=1;exitX=0;exitY=0.5;exitDx=0;exitDy=0;shadow=0;startSize=8;endSize=7;strokeWidth=3;fillColor=default;endArrow=none;endFill=0;" parent="1" source="27" target="46" edge="1">
                    <mxGeometry relative="1" as="geometry"/>
                </mxCell>
                <mxCell id="50" value="" style="group" parent="1" vertex="1" connectable="0">
                    <mxGeometry x="50" y="550" width="50" height="210" as="geometry"/>
                </mxCell>
                <mxCell id="48" value="" style="rounded=0;whiteSpace=wrap;html=1;" parent="50" vertex="1">
                    <mxGeometry width="50" height="210" as="geometry"/>
                </mxCell>
                <mxCell id="49" value="Connector" style="text;html=1;align=center;verticalAlign=middle;resizable=0;points=[];autosize=1;strokeColor=none;fillColor=none;rotation=-90;" parent="50" vertex="1">
                    <mxGeometry x="-10" y="87.5" width="70" height="20" as="geometry"/>
                </mxCell>
                <mxCell id="53" value="&lt;b&gt;&lt;i&gt;Trace Port signals (5 pins)&lt;/i&gt;&lt;/b&gt;" style="edgeStyle=orthogonalEdgeStyle;sketch=0;html=1;shadow=0;startArrow=none;startFill=0;endArrow=classic;endFill=1;startSize=8;endSize=7;strokeWidth=1;fillColor=default;exitX=1;exitY=0.75;exitDx=0;exitDy=0;dashed=1;" parent="1" source="21" target="48" edge="1">
                    <mxGeometry relative="1" as="geometry">
                        <mxPoint x="670" y="605" as="sourcePoint"/>
                        <mxPoint x="120" y="690" as="targetPoint"/>
                        <Array as="points">
                            <mxPoint x="650" y="620"/>
                            <mxPoint x="650" y="530"/>
                            <mxPoint x="75" y="530"/>
                            <mxPoint x="75" y="654"/>
                        </Array>
                    </mxGeometry>
                </mxCell>
                <mxCell id="55" value="" style="endArrow=classic;html=1;shadow=0;dashed=1;sketch=0;fontSize=14;startSize=8;endSize=7;strokeWidth=1;fillColor=default;" parent="1" edge="1">
                    <mxGeometry width="50" height="50" relative="1" as="geometry">
                        <mxPoint x="695" y="589.83" as="sourcePoint"/>
                        <mxPoint x="735" y="589.83" as="targetPoint"/>
                        <Array as="points">
                            <mxPoint x="715" y="589.83"/>
                        </Array>
                    </mxGeometry>
                </mxCell>
                <mxCell id="56" value="" style="endArrow=classic;html=1;shadow=0;sketch=0;fontSize=14;startSize=8;endSize=7;strokeWidth=1;fillColor=default;" parent="1" edge="1">
                    <mxGeometry width="50" height="50" relative="1" as="geometry">
                        <mxPoint x="695" y="640" as="sourcePoint"/>
                        <mxPoint x="735" y="640" as="targetPoint"/>
                        <Array as="points">
                            <mxPoint x="715" y="640"/>
                        </Array>
                    </mxGeometry>
                </mxCell>
                <mxCell id="57" value="Trace Data" style="text;html=1;align=center;verticalAlign=middle;resizable=0;points=[];autosize=1;strokeColor=none;fillColor=none;fontSize=14;" parent="1" vertex="1">
                    <mxGeometry x="675" y="560" width="80" height="20" as="geometry"/>
                </mxCell>
                <mxCell id="58" value="Debug Access" style="text;html=1;align=center;verticalAlign=middle;resizable=0;points=[];autosize=1;strokeColor=none;fillColor=none;fontSize=14;" parent="1" vertex="1">
                    <mxGeometry x="660" y="615" width="110" height="20" as="geometry"/>
                </mxCell>
                <mxCell id="59" value="&lt;b&gt;&lt;font style=&quot;font-size: 14px&quot;&gt;Legend&lt;/font&gt;&lt;/b&gt;" style="rounded=0;whiteSpace=wrap;html=1;fillColor=#f5f5f5;strokeColor=#666666;opacity=60;fontColor=#333333;" parent="1" vertex="1">
                    <mxGeometry x="665" y="520" width="100" height="30" as="geometry"/>
                </mxCell>
                <mxCell id="60" value="" style="fontColor=#0066CC;verticalAlign=top;verticalLabelPosition=bottom;labelPosition=center;align=center;html=1;outlineConnect=0;fillColor=#CCCCCC;strokeColor=#6881B3;gradientColor=none;gradientDirection=north;strokeWidth=2;shape=mxgraph.networks.pc;" parent="1" vertex="1">
                    <mxGeometry x="-190" y="715" width="210" height="165" as="geometry"/>
                </mxCell>
                <mxCell id="62" value="&lt;font style=&quot;font-size: 15px&quot;&gt;USB&lt;/font&gt;" style="edgeStyle=none;html=1;endArrow=classic;endFill=1;strokeColor=default;startArrow=block;startFill=1;" parent="1" source="61" target="60" edge="1">
                    <mxGeometry relative="1" as="geometry"/>
                </mxCell>
                <mxCell id="61" value="" style="image;html=1;image=img/lib/clip_art/computers/USB_Hub_128x128.png" parent="1" vertex="1">
                    <mxGeometry x="-130" y="550" width="95" height="110" as="geometry"/>
                </mxCell>
                <mxCell id="63" value="&lt;b style=&quot;color: rgb(0, 0, 0); font-size: 11px; font-style: normal; letter-spacing: normal; text-align: center; text-indent: 0px; text-transform: none; word-spacing: 0px; font-family: helvetica;&quot;&gt;&lt;i&gt;JTAG/&lt;br&gt;&amp;nbsp;SWD&lt;/i&gt;&lt;/b&gt;" style="edgeStyle=orthogonalEdgeStyle;sketch=0;html=1;shadow=0;endArrow=classic;endFill=1;startSize=8;endSize=7;strokeWidth=1;fillColor=default;startArrow=classic;startFill=1;" parent="1" source="48" target="61" edge="1">
                    <mxGeometry x="0.1765" y="-20" relative="1" as="geometry">
                        <mxPoint x="59.99999999999977" y="709.9244827586208" as="sourcePoint"/>
                        <mxPoint x="-20.000000000000227" y="710" as="targetPoint"/>
                        <Array as="points">
                            <mxPoint x="20" y="610"/>
                            <mxPoint x="20" y="610"/>
                        </Array>
                        <mxPoint as="offset"/>
                    </mxGeometry>
                </mxCell>
                <mxCell id="64" value="Debug Probe" style="text;html=1;align=center;verticalAlign=middle;resizable=0;points=[];autosize=1;strokeColor=none;fillColor=none;fontSize=15;" parent="1" vertex="1">
                    <mxGeometry x="-135" y="540" width="100" height="20" as="geometry"/>
                </mxCell>
            </root>
        </mxGraphModel>
    </diagram>
</mxfile>